# xmcd CD database file
#
# Track frame offsets:
#	150
#	12729
#	23208
#	34817
#	43430
#	58744
#	70934
#	75652
#	86148
#	107133
#
# Disc length: 1571 seconds
#
# Revision: 2
# Processed by: cddbd v1.4PL0 Copyright (c) Steve Scherf et al.
# Submitted via: CDex 1.40Release
#
DISCID=8b06210a
DTITLE=Fat's Domino - Live in Concert
DYEAR=1900
DGENRE=Blues
TTITLE0=I'm Walking
TTITLE1=The Fat Man
TTITLE2=Ain't that a Shame
TTITLE3=I'm Ready
TTITLE4=Lawdy Miss Clawdy
TTITLE5=Blueberry Hill
TTITLE6=Whole Lot of Lovin'
TTITLE7=I'm Gonna Be A Wheel Someday
TTITLE8=Jambalaya
TTITLE9=Ain't that a Shame
EXTD=ID3G: 0
EXTT0=
EXTT1=
EXTT2=
EXTT3=
EXTT4=
EXTT5=
EXTT6=
EXTT7=
EXTT8=
EXTT9=
PLAYORDER=
